<?xml version="1.0" encoding="UTF-8" standalone="no"?>
<svg width="489px" height="67px" viewBox="0 0 489 67" version="1.1" xmlns="http://www.w3.org/2000/svg" xmlns:xlink="http://www.w3.org/1999/xlink" xmlns:sketch="http://www.bohemiancoding.com/sketch/ns">
    <!-- Generator: Sketch 3.2.2 (9983) - http://www.bohemiancoding.com/sketch -->
    <title>POPULR</title>
    <desc>Created with Sketch.</desc>
    <defs></defs>
    <g id="Page-1" stroke="none" stroke-width="1" fill="none" fill-rule="evenodd" sketch:type="MSPage">
        <path d="M0.56,65 L14.42,65 L14.42,46.1 L24.95,46.1 C39.08,46.1 50.42,38.54 50.42,23.96 L50.42,23.78 C50.42,10.91 41.33,2 26.3,2 L0.56,2 L0.56,65 Z M14.42,33.77 L14.42,14.51 L25.13,14.51 C32.06,14.51 36.38,17.84 36.38,24.05 L36.38,24.23 C36.38,29.63 32.33,33.77 25.4,33.77 L14.42,33.77 Z M113.971165,66.08 C133.411165,66.08 147.541165,51.41 147.541165,33.5 L147.541165,33.32 C147.541165,15.41 133.591165,0.92 114.151165,0.92 C94.7111651,0.92 80.5811651,15.59 80.5811651,33.5 L80.5811651,33.68 C80.5811651,51.59 94.5311651,66.08 113.971165,66.08 L113.971165,66.08 Z M114.151165,53.3 C102.991165,53.3 95.0711651,44.3 95.0711651,33.5 L95.0711651,33.32 C95.0711651,22.52 102.811165,13.7 113.971165,13.7 C125.131165,13.7 133.051165,22.7 133.051165,33.5 L133.051165,33.68 C133.051165,44.48 125.311165,53.3 114.151165,53.3 L114.151165,53.3 Z M182.56233,65 L196.42233,65 L196.42233,46.1 L206.95233,46.1 C221.08233,46.1 232.42233,38.54 232.42233,23.96 L232.42233,23.78 C232.42233,10.91 223.33233,2 208.30233,2 L182.56233,2 L182.56233,65 Z M196.42233,33.77 L196.42233,14.51 L207.13233,14.51 C214.06233,14.51 218.38233,17.84 218.38233,24.05 L218.38233,24.23 C218.38233,29.63 214.33233,33.77 207.40233,33.77 L196.42233,33.77 Z M291.653495,65.99 C308.573495,65.99 319.283495,56.63 319.283495,37.55 L319.283495,2 L305.423495,2 L305.423495,38.09 C305.423495,48.08 300.293495,53.21 291.833495,53.21 C283.373495,53.21 278.243495,47.9 278.243495,37.64 L278.243495,2 L264.383495,2 L264.383495,38 C264.383495,56.54 274.733495,65.99 291.653495,65.99 L291.653495,65.99 Z M356.104661,65 L401.374661,65 L401.374661,52.4 L369.964661,52.4 L369.964661,2 L356.104661,2 L356.104661,65 Z M434.505826,65 L448.365826,65 L448.365826,44.84 L459.255826,44.84 L472.755826,65 L488.955826,65 L473.565826,42.5 C481.575826,39.53 487.065826,33.14 487.065826,22.97 L487.065826,22.79 C487.065826,16.85 485.175826,11.9 481.665826,8.39 C477.525826,4.25 471.315826,2 463.305826,2 L434.505826,2 L434.505826,65 Z M448.365826,32.6 L448.365826,14.51 L462.135826,14.51 C468.885826,14.51 473.025826,17.57 473.025826,23.51 L473.025826,23.69 C473.025826,29 469.155826,32.6 462.405826,32.6 L448.365826,32.6 Z" id="POPULR" fill="#FFFFFF" sketch:type="MSShapeGroup"></path>
    </g>
</svg>